<?xml version="1.0" encoding="utf-8"?>
<!-- Generator: Adobe Illustrator 22.1.0, SVG Export Plug-In . SVG Version: 6.00 Build 0)  -->
<svg version="1.1" id="Camada_1" xmlns="http://www.w3.org/2000/svg" xmlns:xlink="http://www.w3.org/1999/xlink" x="0px" y="0px"
	 width="24px" height="24px" viewBox="0 0 24 24" style="enable-background:new 0 0 24 24;" xml:space="preserve">
<style type="text/css">
	.st0{fill:none;}
	.st1{fill:#2C5CA8;}
	.st2{fill:#02723B;}
	.st3{fill:#D24625;}
	.st4{fill:#CC0A0A;}
</style>
<g>
	<path class="st0" d="M0,0h24v24H0V0z"/>
	<polygon class="st0" points="13,9 18.5,9 13,3.5 	"/>
	<path class="st2" d="M14,2H6C4.9,2,4,2.9,4,4l0,16c0,1.1,0.9,2,2,2h12c1.1,0,2-0.9,2-2V8L14,2z M13.3,18.5L12,16l-1.3,2.5H9
		l2.1-3.5l-2-3.5h1.7l1.3,2.4l1.3-2.4H15l-2,3.5l2.1,3.5H13.3z M13,9V3.5L18.5,9H13z"/>
</g>
</svg>
