<?xml version="1.0" encoding="utf-8"?>
<!-- Generator: Adobe Illustrator 19.0.0, SVG Export Plug-In . SVG Version: 6.00 Build 0)  -->
<svg version="1.1" id="Layer_1" xmlns="http://www.w3.org/2000/svg" xmlns:xlink="http://www.w3.org/1999/xlink" x="0px" y="0px"
	 width="293.7px" height="60.6px" viewBox="0 0 293.7 60.6" style="enable-background:new 0 0 293.7 60.6;" xml:space="preserve">
<style type="text/css">
	.st0{fill:url(#XMLID_112_);}
	.st1{opacity:0.5;}
	.st2{clip-path:url(#SVGID_1_);fill:#37B34A;}
	.st3{fill:#3BC0CF;}
	.st4{fill:#37B34A;}
	.st5{fill:#4E95D0;}
	.st6{fill:none;}
	.st7{opacity:0.5;fill:#37B34A;}
	.st8{fill:none;stroke:#231F20;stroke-width:5.141680e-002;stroke-miterlimit:10;}
	.st9{fill:url(#XMLID_113_);}
	.st10{fill:url(#XMLID_114_);}
	.st11{fill:#4D4D4D;}
	.st12{fill:#4394D0;}
</style>
<g id="XMLID_1_">
	<linearGradient id="XMLID_112_" gradientUnits="userSpaceOnUse" x1="-5.699039e-007" y1="30.0001" x2="46.3362" y2="30.0001">
		<stop  offset="0" style="stop-color:#F7F7F7"/>
		<stop  offset="1" style="stop-color:#C5C6C7"/>
	</linearGradient>
	<path id="XMLID_75_" class="st0" d="M33.2,52.6c-0.4,4.5-4.3,7.7-8.8,7.3c-0.1,0-0.2,0-0.3,0c-0.3,0-0.5-0.1-0.8-0.1l0,0l0,0l0,0
		l0,0C8.9,56.4-1.2,42.8,0.1,27.6c1.3-15,13.4-26.5,28-27.5c2.8-0.1,4.7,0,5,0l0,0c0,0,7.9,0.7,12.1,4.1c0.6,0.5,1.2,1.2,1.1,2.1
		c-0.1,1.2-1.2,2.1-2.3,2c-0.2,0-0.3,0-0.4-0.1C41.9,7.8,36,6.8,29.8,8c-4.1,0.8-8.4,2.5-11.6,6C9.2,23.6,15,31.9,15,31.9
		s2.8,7,13.9,12.9C31.7,46.2,33.5,49.3,33.2,52.6z"/>
	<g id="XMLID_72_" class="st1">
		<g id="XMLID_73_">
			<defs>
				<rect id="SVGID_7_" x="23.3" y="59.8" width="0" height="0"/>
			</defs>
			<clipPath id="SVGID_1_">
				<use xlink:href="#SVGID_7_"  style="overflow:visible;"/>
			</clipPath>
			<polygon id="XMLID_74_" class="st2" points="23.3,59.8 23.3,59.8 23.3,59.8 			"/>
		</g>
	</g>
	<rect id="XMLID_71_" x="23.3" y="59.8" class="st3" width="0" height="0"/>
	<polygon id="XMLID_70_" class="st4" points="50.8,52.6 50.8,52.6 50.8,52.6 	"/>
	<polygon id="XMLID_69_" class="st4" points="48.5,54.6 48.5,54.6 48.5,54.6 	"/>
	<path id="XMLID_68_" class="st5" d="M50.8,52.6"/>
	<polygon id="XMLID_67_" class="st6" points="48.6,54.5 48.5,54.6 48.6,54.5 	"/>
	<path id="XMLID_66_" class="st5" d="M48.5,54.5C48.5,54.6,48.5,54.6,48.5,54.5C48.5,54.6,48.5,54.6,48.5,54.5L48.5,54.5
		C48.6,54.5,48.5,54.5,48.5,54.5z"/>
	<path id="XMLID_65_" d="M44.9,56.9c-0.2,0.1-0.4,0.2-0.7,0.4C44.4,57.1,44.6,57,44.9,56.9z"/>
	<path id="XMLID_64_" d="M37.4,59.8c-0.2,0-0.4,0.1-0.6,0.1C37,59.9,37.2,59.8,37.4,59.8z"/>
	<path id="XMLID_63_" d="M34.4,60.3c-0.2,0-0.4,0.1-0.6,0.1C34,60.4,34.2,60.4,34.4,60.3z"/>
	<path id="XMLID_62_" d="M38.8,59.4c-0.2,0-0.3,0.1-0.5,0.1C38.5,59.5,38.7,59.5,38.8,59.4z"/>
	<path id="XMLID_61_" d="M35.9,60.1c-0.2,0-0.4,0.1-0.6,0.1C35.5,60.2,35.7,60.1,35.9,60.1z"/>
	<path id="XMLID_60_" d="M46.1,56.2c-0.2,0.1-0.4,0.3-0.7,0.4C45.7,56.4,45.9,56.3,46.1,56.2z"/>
	<path id="XMLID_59_" d="M42.2,58.2c-0.2,0.1-0.4,0.2-0.7,0.3C41.8,58.4,42,58.3,42.2,58.2z"/>
	<path id="XMLID_58_" d="M43.6,57.6c-0.2,0.1-0.5,0.2-0.7,0.3C43.1,57.8,43.3,57.7,43.6,57.6z"/>
	<path id="XMLID_57_" d="M40.8,58.8c-0.2,0.1-0.4,0.2-0.6,0.2C40.4,58.9,40.6,58.8,40.8,58.8z"/>
	<path id="XMLID_56_" d="M32.9,60.5c-0.2,0-0.4,0-0.6,0C32.5,60.5,32.7,60.5,32.9,60.5z"/>
	<path id="XMLID_55_" d="M48.5,54.5c-0.2,0.2-0.4,0.3-0.7,0.5C48.1,54.9,48.3,54.7,48.5,54.5z"/>
	<path id="XMLID_54_" d="M47.3,55.4c-0.2,0.1-0.4,0.3-0.7,0.4C46.9,55.7,47.1,55.5,47.3,55.4z"/>
	<path id="XMLID_53_" d="M31.3,60.6c-0.2,0-0.4,0-0.6,0C30.9,60.6,31.1,60.6,31.3,60.6z"/>
	<path id="XMLID_52_" d="M29.7,60.6c-0.2,0-0.3,0-0.5,0C29.4,60.6,29.5,60.6,29.7,60.6z"/>
	<polygon id="XMLID_51_" class="st5" points="48.5,54.5 48.5,54.5 48.5,54.5 	"/>
	<path id="XMLID_50_" class="st5" d="M42.9,57.9c-0.2,0.1-0.4,0.2-0.7,0.3C42.4,58.1,42.7,58,42.9,57.9z"/>
	<path id="XMLID_49_" class="st5" d="M47.9,55c-0.2,0.1-0.3,0.3-0.5,0.4C47.5,55.3,47.7,55.1,47.9,55z"/>
	<path id="XMLID_48_" class="st5" d="M45.5,56.6c-0.2,0.1-0.4,0.2-0.6,0.3C45.1,56.8,45.3,56.7,45.5,56.6z"/>
	<path id="XMLID_47_" class="st5" d="M44.2,57.3c-0.2,0.1-0.4,0.2-0.6,0.3C43.8,57.5,44,57.4,44.2,57.3z"/>
	<path id="XMLID_46_" class="st5" d="M46.7,55.8c-0.2,0.1-0.4,0.2-0.6,0.4C46.3,56.1,46.5,55.9,46.7,55.8z"/>
	<path id="XMLID_45_" class="st5" d="M41.5,58.5c-0.2,0.1-0.5,0.2-0.7,0.3C41,58.7,41.3,58.6,41.5,58.5z"/>
	<path id="XMLID_44_" class="st5" d="M32.3,60.6c-0.3,0-0.6,0-0.9,0C31.6,60.6,32,60.6,32.3,60.6z"/>
	<path id="XMLID_43_" class="st5" d="M30.7,60.6c-0.3,0-0.7,0-1,0C30,60.6,30.4,60.6,30.7,60.6z"/>
	<path id="XMLID_42_" class="st5" d="M29.2,60.6c-0.5,0-1-0.1-1.6-0.1C28.1,60.5,28.7,60.6,29.2,60.6z"/>
	<path id="XMLID_41_" class="st5" d="M28.3,25.6C28.2,25.5,28.3,25.6,28.3,25.6C24.9,22,19.6,18.1,29.8,8
		C20,17.7,24.4,21.7,28.3,25.6z"/>
	<path id="XMLID_40_" class="st5" d="M33.8,60.4c-0.3,0-0.6,0.1-0.9,0.1C33.2,60.5,33.5,60.5,33.8,60.4z"/>
	<path id="XMLID_39_" class="st5" d="M40.2,59c-0.4,0.2-0.9,0.3-1.4,0.4C39.3,59.3,39.7,59.1,40.2,59z"/>
	<path id="XMLID_38_" class="st5" d="M38.3,59.5c-0.3,0.1-0.6,0.2-0.9,0.2C37.7,59.7,38,59.6,38.3,59.5z"/>
	<path id="XMLID_37_" class="st5" d="M36.8,59.9c-0.3,0.1-0.6,0.1-0.9,0.2C36.2,60,36.5,60,36.8,59.9z"/>
	<path id="XMLID_36_" class="st5" d="M35.3,60.2c-0.3,0-0.6,0.1-0.9,0.1C34.7,60.3,35,60.3,35.3,60.2z"/>
	<path id="XMLID_35_" class="st7" d="M48.5,54.6"/>
	<path id="XMLID_34_" class="st8" d="M28.3,25.6"/>
	<polygon id="XMLID_33_" points="27.6,31.3 27.6,31.3 27.6,31.3 	"/>
	<linearGradient id="XMLID_113_" gradientUnits="userSpaceOnUse" x1="13.17" y1="34.318" x2="49.7089" y2="34.318">
		<stop  offset="0" style="stop-color:#306A95"/>
		<stop  offset="1" style="stop-color:#4394D0"/>
	</linearGradient>
	<path id="XMLID_32_" class="st9" d="M43.1,41.6c0,0-3.3-2.1-3.8-2.4c-5.7-3.5-11.5-7.8-11.7-7.9c0,0,0,0,0,0c0,0,0,0,0,0l0,0
		c0,0,0,0,0,0c-0.7-0.7-1.1-1.7-1-2.8c0-0.3,0.3-1.8,1.7-2.9c-4.1-4.1-8.1-8,1.5-17.6c-4.1,0.8-8.4,2.5-11.6,6
		C9.2,23.6,15,31.9,15,31.9s2.8,7,13.9,12.9c2.8,1.5,4.6,4.5,4.3,7.9c-0.4,4.5-4.3,7.7-8.8,7.3c-0.2,0-0.4,0-0.7-0.1
		c1.3,0.3,2.5,0.5,3.9,0.6c0.5,0,1,0.1,1.6,0.1c0.2,0,0.3,0,0.5,0c0.3,0,0.7,0,1,0c0.2,0,0.4,0,0.6,0c0.3,0,0.6,0,0.9,0
		c0.2,0,0.4,0,0.6,0c0.3,0,0.6-0.1,0.9-0.1c0.2,0,0.4,0,0.6-0.1c0.3,0,0.6-0.1,0.9-0.1c0.2,0,0.4-0.1,0.6-0.1
		c0.3-0.1,0.6-0.1,0.9-0.2c0.2,0,0.4-0.1,0.6-0.1c0.3-0.1,0.6-0.2,0.9-0.2c0.2,0,0.3-0.1,0.5-0.1c0.5-0.1,0.9-0.3,1.4-0.4
		c0.2-0.1,0.4-0.2,0.6-0.2c0.2-0.1,0.5-0.2,0.7-0.3c0.2-0.1,0.4-0.2,0.7-0.3c0.2-0.1,0.4-0.2,0.7-0.3c0.2-0.1,0.5-0.2,0.7-0.3
		c0.2-0.1,0.4-0.2,0.6-0.3c0.2-0.1,0.5-0.2,0.7-0.4c0.2-0.1,0.4-0.2,0.6-0.3c0.2-0.1,0.4-0.3,0.7-0.4c0.2-0.1,0.4-0.2,0.6-0.4
		c0.2-0.1,0.4-0.3,0.7-0.4c0.2-0.1,0.3-0.2,0.5-0.4c0.2-0.2,0.4-0.3,0.7-0.5h0C48.7,54.3,53.3,48.4,43.1,41.6z"/>
	<linearGradient id="XMLID_114_" gradientUnits="userSpaceOnUse" x1="26.5273" y1="38.4619" x2="58.9306" y2="38.4619">
		<stop  offset="0" style="stop-color:#FFFFFF"/>
		<stop  offset="1" style="stop-color:#C5C6C7"/>
	</linearGradient>
	<path id="XMLID_31_" class="st10" d="M58.6,41.2c-1,2.4-2.2,4.6-3.4,6.6c-0.3,0.4-0.6,0.8-0.9,1.2c0,0.1-0.1,0.1-0.1,0.2
		c-0.3,0.4-0.6,0.8-0.9,1.1c0,0-0.1,0.1-0.1,0.1c-0.7,0.8-1.5,1.5-2.2,2.3c0,0,0,0,0,0c-0.7,0.7-1.5,1.3-2.3,1.9
		c0.1-0.1,1-1.3,1.2-3.1c0.2-2.4-0.8-6-6.5-9.8c0,0-3.3-2.1-3.8-2.4c-5.7-3.5-11.5-7.8-11.7-7.9l0,0c0,0,0,0,0,0l0,0c0,0,0,0,0,0
		c-0.7-0.7-1.1-1.7-1.1-2.8c0-0.3,0.1-0.7,0.2-0.9c0.3-0.6,0.5-1.1,1-1.5c1.8-1.9,5.3-2.9,6.8-3.3c0.1,0,0.3-0.1,0.4-0.1
		c0.1,0,0.2-0.1,0.2-0.1l0,0c0.9-0.2,1.8-0.2,2.7-0.2c1.3,0.1,2.6,0.5,3.6,1.1l0,0c0,0,6.4,3.6,11.8,8.1
		C53.4,31.6,60.6,37,58.6,41.2z"/>
	<g id="XMLID_4_">
		<g id="XMLID_13_">
			<g id="XMLID_17_">
				<path id="XMLID_30_" class="st11" d="M97.5,30.1c0,0-0.2,5.4,4.5,5.4l0,6.7c0,0-6.7,1.6-10.2-2c-1.6-1.7-6.1-8.6,0-15.2
					c0.5-0.6,2.7-2.9,8.7-2.5l0,0h0c0.6,0,1.2,0.1,1.9,0.2c4,0.3,5.4-4.5,5.4-4.5v0c0,0-16.9-6.5-24.8,7.7c0,0-5.6,11.7,5.1,19.9
					c0,0,6.4,5.1,20.8,0.8l0-16.3L97.5,30.1z"/>
				<path id="XMLID_29_" class="st11" d="M113.9,25.3l0,22.5c0,0,7.2,0,7.2-4.5c0-4.5,0-7.5,0-7.5s0-4.9,5.6-4.4l1.2,0.2l0-5.9
					c0,0-5.4-1.7-7.6,3.9l0-4.1L113.9,25.3z"/>
				<path id="XMLID_28_" class="st11" d="M152.4,25.3l8.2,22.5l7,0l8.3-22.5c0,0-7.4,0-8.2,3.2l-3.3,12.8l-3.5-12.8
					C160.9,28.4,160,25.3,152.4,25.3"/>
				<path id="XMLID_25_" class="st11" d="M141.7,25.3c-6.9,0-10.5,1.5-10.5,1.5s1.1,4,5.5,3c0,0,3.8-0.9,5.5,1c0,0,0.8,0.4,0.6,2
					c0,0-10.7-0.3-12.7,5.9c-2.1,6.2,2.9,9.4,6.1,9.6c0,0,4.4,0.3,7.2-2.8l0,2.3l6.7,0l0-14.8C150.1,33,150.1,25.3,141.7,25.3
					 M139.2,43.4c-0.9,0-2.7-0.1-2.7-2.7c0-2.5,2.5-3.5,6.5-3.5l0,2.2C143.1,39.4,143.4,43.3,139.2,43.4"/>
				<path id="XMLID_24_" class="st11" d="M201,42.3c-0.6-0.1-1.8-0.3-1.8-1.8c0-2.1,0-10.1,0-10.1s5.4,0,5.3-5.2l-5,0l0-6.4
					c0,0-6.8,1.6-6.8,6.4l0,18.1c0,0,0.2,4.4,3.9,4.4c1.3,0,2.7,0,3.9,0c2.2,0,3.8,0,3.8,0C204.4,43.2,202.6,42.6,201,42.3"/>
				<path id="XMLID_23_" class="st11" d="M217.9,42.2c-0.6-0.1-1.8-0.3-1.8-1.8c0-2.1,0-10.1,0-10.1s5.4,0,5.3-5.2l-5,0l0-6.4
					c0,0-6.8,1.6-6.8,6.4l0,18.1c0,0,0.2,4.4,3.9,4.4c1.3,0,2.7,0,3.9,0c2.2,0,3.8,0,3.8,0C221.3,43.2,219.5,42.6,217.9,42.2"/>
				<path id="XMLID_20_" class="st11" d="M234.7,25.2c0,0-10.7-0.2-10.7,10.4c0,0-1,12.5,12,12.5c0,0,4.5,0,8.1-1.4
					c0,0-0.9-4.7-5.2-3.9c0,0-8.3,1-8.3-4.1l14.5-0.1C245.1,38.6,246.9,25.2,234.7,25.2 M230.6,33.9c0,0,0.3-4.5,4.3-4.6
					c4,0,4,4.5,4,4.5L230.6,33.9z"/>
				<path id="XMLID_19_" class="st11" d="M249.3,25.1l0,22.5c0,0,7,0,7-4.5c0-4.5,0-9.4,0-9.4s0-3.5,3.5-3.5c3.3,0,3.3,3.3,3.3,3.3
					l0,14.1c0,0,6.7,0,6.7-4.5c0-4.5,0-9.4,0-9.4s0-3.5,3.5-3.5c3.3,0,3.3,3.3,3.3,3.3l0,14c0,0,6.8,0,6.8-4.5c0-4.4,0-9.6,0-9.6
					s0-8.4-7.1-8.4c-2,0-5-0.1-7.6,3.4c0,0-1.9-3.4-6.6-3.4c-4.6,0-6.5,3.1-6.5,3.1l0-3L249.3,25.1z"/>
				<path id="XMLID_18_" class="st11" d="M185.9,43.2c0-2.4,0-7.4,0.1-11.4v-6.5c-0.1,0-0.2,0-0.3,0c-1.4,0.1-6.6,0.6-6.6,4.5
					c0,3,0,10.1-0.1,14.4v3.6c0,0,0.1,0,0.1,0C179.9,47.7,185.9,47.4,185.9,43.2"/>
			</g>
			<path id="XMLID_14_" class="st12" d="M186.5,17c1.4-2.5,1.4-4.6,1.4-4.6c-0.1,0-8.9,2.3-8.9,6.8v2.5
				C179,21.7,184.2,20.8,186.5,17"/>
		</g>
		<g id="XMLID_5_">
			<path id="XMLID_6_" class="st11" d="M290.3,41.5c0.6,0,1.1,0.1,1.7,0.4c0.5,0.3,1,0.7,1.3,1.3c0.3,0.5,0.5,1.1,0.5,1.7
				c0,0.6-0.1,1.2-0.4,1.7c-0.3,0.5-0.7,1-1.3,1.3c-0.5,0.3-1.1,0.4-1.7,0.4c-0.6,0-1.2-0.1-1.7-0.4c-0.5-0.3-1-0.7-1.3-1.3
				c-0.3-0.5-0.5-1.1-0.5-1.7c0-0.6,0.2-1.2,0.5-1.7c0.3-0.5,0.7-1,1.3-1.3C289.1,41.6,289.7,41.5,290.3,41.5z M290.3,42
				c-0.5,0-0.9,0.1-1.4,0.4c-0.5,0.2-0.8,0.6-1.1,1.1c-0.3,0.5-0.4,0.9-0.4,1.4c0,0.5,0.1,1,0.4,1.4c0.3,0.4,0.6,0.8,1.1,1.1
				c0.5,0.3,0.9,0.4,1.4,0.4c0.5,0,1-0.1,1.4-0.4c0.5-0.3,0.8-0.6,1.1-1.1s0.4-0.9,0.4-1.4c0-0.5-0.1-1-0.4-1.4
				c-0.3-0.5-0.6-0.8-1.1-1.1C291.2,42.2,290.8,42,290.3,42z M288.8,46.8v-3.7h1.3c0.4,0,0.7,0,0.9,0.1c0.2,0.1,0.3,0.2,0.5,0.4
				c0.1,0.2,0.2,0.3,0.2,0.5c0,0.3-0.1,0.5-0.3,0.7c-0.2,0.2-0.4,0.3-0.8,0.3c0.1,0.1,0.2,0.1,0.3,0.2c0.1,0.1,0.3,0.4,0.5,0.7
				l0.4,0.7h-0.7l-0.3-0.6c-0.3-0.5-0.5-0.7-0.6-0.9c-0.1-0.1-0.3-0.1-0.5-0.1h-0.3v1.6H288.8z M289.4,44.7h0.7
				c0.3,0,0.6-0.1,0.7-0.2c0.1-0.1,0.2-0.2,0.2-0.4c0-0.1,0-0.2-0.1-0.3c-0.1-0.1-0.1-0.1-0.3-0.2c-0.1,0-0.3-0.1-0.6-0.1h-0.7V44.7
				z"/>
		</g>
	</g>
</g>
</svg>
