<?xml version="1.0" encoding="utf-8"?>
<!-- Generator: Adobe Illustrator 22.1.0, SVG Export Plug-In . SVG Version: 6.00 Build 0)  -->
<svg version="1.1" id="Camada_1" xmlns="http://www.w3.org/2000/svg" xmlns:xlink="http://www.w3.org/1999/xlink" x="0px" y="0px"
	 width="24px" height="24px" viewBox="0 0 24 24" style="enable-background:new 0 0 24 24;" xml:space="preserve">
<style type="text/css">
	.st0{fill:none;}
	.st1{fill:#2C5CA8;}
	.st2{fill:#02723B;}
	.st3{fill:#D24625;}
	.st4{fill:#CC0A0A;}
</style>
<g>
	<path class="st0" d="M0,0h24v24H0V0z"/>
	<polygon class="st0" points="13,9 18.5,9 13,3.5 	"/>
	<path class="st4" d="M7.8,14.3H6.8v1.6h0.9c0.3,0,0.5-0.1,0.6-0.2c0.1-0.1,0.2-0.3,0.2-0.5c0-0.2-0.1-0.4-0.2-0.6
		C8.2,14.4,8,14.3,7.8,14.3z"/>
	<path class="st4" d="M14,2H6C4.9,2,4,2.9,4,4l0,16c0,1.1,0.9,2,2,2h12c1.1,0,2-0.9,2-2V8L14,2z M9.1,16.3c-0.3,0.3-0.8,0.4-1.4,0.4
		H6.8v1.8h-1v-5h2c0.4,0,0.7,0.1,1,0.2C9,13.8,9.3,14,9.4,14.3c0.2,0.3,0.2,0.5,0.2,0.9C9.6,15.6,9.5,16,9.1,16.3z M14.2,16.1
		c0,0.5-0.1,0.9-0.3,1.2c-0.2,0.4-0.5,0.6-0.8,0.8c-0.3,0.2-0.7,0.3-1.2,0.3h-1.5v-5h1.5c0.4,0,0.8,0.1,1.2,0.3
		c0.3,0.2,0.6,0.5,0.8,0.8c0.2,0.4,0.3,0.8,0.3,1.2V16.1z M18.2,14.3H16v1.3h2v0.8h-2v2h-1v-5h3.3V14.3z M13,9V3.5L18.5,9H13z"/>
	<path class="st4" d="M11.9,14.3h-0.5v3.3h0.5c0.4,0,0.7-0.1,0.9-0.4c0.2-0.3,0.3-0.6,0.3-1.1v-0.3c0-0.5-0.1-0.9-0.3-1.2
		S12.3,14.3,11.9,14.3z"/>
</g>
</svg>
