<?xml version="1.0" standalone="yes"?>
<svg xmlns="http://www.w3.org/2000/svg" width="316" height="264" style="background-color:none;">
<path style="fill:#227ab8; stroke:none;" d="M284 8L285 9L284 8z"/>
<path style="fill:#a1b490; stroke:none;" d="M284.333 9.66667L284.667 10.3333L284.333 9.66667z"/>
<path style="fill:#227ab8; stroke:none;" d="M284 11L285 12L284 11M163 21.4645C149.856 23.8132 140.83 33.9592 129 39.1242C115.214 45.1434 96.4462 42.8655 86.5571 56.0039C78.3122 66.9578 79.8693 82.7995 74.1096 95C68.4113 107.07 57.0293 116.73 57.0293 131C57.0293 145.185 68.4332 154.976 74.1096 167C80.7117 180.985 78.2042 201.408 92.0039 211.2C103.263 219.189 118.796 217.507 131 223.608C144.143 230.179 156.657 244.181 172.83 240.725C184.423 238.248 194.284 227.144 205 222.313C218.494 216.23 236.634 219.027 246.443 205.996C254.629 195.121 252.999 180.011 258.63 168C264.31 155.886 275.555 146.074 276.391 132C277.309 116.557 263.461 105.234 257.876 92C252.223 78.6068 254.574 60.8146 241.91 51.1049C230.942 42.6957 215.114 44.5933 203 38.6265C190.398 32.4196 178.338 18.7237 163 21.4645z"/>
<path style="fill:#a1b490; stroke:none;" d="M148 62L149 62L150 62L153 60L148 62z"/>
<path style="fill:#f0f2f4; stroke:none;" d="M149 60L149 61L164 64L149 60z"/>
<path style="fill:#a1b490; stroke:none;" d="M155.667 60.3333L156.333 60.6667L155.667 60.3333M159 61L159 62L162 62L159 61M155.667 62.3333L156.333 62.6667L155.667 62.3333M163 62L164 63L163 62M144 63L144 64L152 64L144 63M159.667 63.3333L160.333 63.6667L159.667 63.3333M139.667 64.3333L140.333 64.6667L139.667 64.3333z"/>
<path style="fill:#f0f2f4; stroke:none;" d="M143 141C185.684 151.044 203.526 85.31 165 67.6698C154.987 63.0847 143.228 62.4854 133 66.8789C130.231 68.0684 124.292 70.3799 124.346 74.0934C124.398 77.75 129.376 81.4632 131.576 84C138.24 91.6868 150.027 100.504 153.883 110C157.229 118.241 144.5 132.585 143 141z"/>
<path style="fill:#a1b490; stroke:none;" d="M156 64L157 65L156 64M163.667 64.3333L164.333 64.6667L163.667 64.3333M136 65L137 66L136 65M159.667 65.3333L160.333 65.6667L159.667 65.3333M133 66L134 67L133 66M162 66L163 67L162 66M131 67L132 68L131 67M164 67L165 68L164 67M129 68L130 69L129 68M127 69L128 70L127 69M168 69L169 70L168 69M126 70L127 71L126 70M170 70L171 71L170 70M171 71L172 72L171 71M172 72L173 73L172 72M123 74L124 75L123 74M175 74L176 75L175 74z"/>
<path style="fill:#fdda71; stroke:none;" d="M124 78C100.175 89.6437 114.24 133.719 137.957 136.562C143.87 137.271 153.32 116.256 152.184 111C151.158 106.257 144.832 101.554 141.715 98C135.859 91.3243 129.38 85.0606 124 78z"/>
<path style="fill:#a1b490; stroke:none;" d="M126 78L127 79L126 78M127 79L128 80L127 79M179 79L180 80L179 79M125 80L126 81L125 80M128 80L129 81L128 80M180 80L181 81L180 80M126 81L127 82L126 81M129 81L130 82L129 81M118 82L119 83L118 82M127 82L128 83L127 82M130 82L131 83L130 82M181 82L182 83L181 82M128 83L129 84L128 83M131 83L132 84L131 83M129 84L130 85L129 84M116 85L117 86L116 85M130 85L131 86L130 85M183 85L184 86L183 85M131 86L132 87L131 86M115 87L116 88L115 87M134 87L135 88L134 87M184.333 87.6667L184.667 88.3333L184.333 87.6667M135 88L136 89L135 88M114.333 89.6667L114.667 90.3333L114.333 89.6667M136 89L137 90L136 89M137 90L138 91L137 90M185 90L186 91L185 90M135 91L136 92L135 91M138 91L139 92L138 91M113.333 92.6667L113.667 93.3333L113.333 92.6667M136 92L137 93L136 92M139 92L140 93L139 92M137 93L138 94L137 93M140 93L141 94L140 93M186.333 93.6667L186.667 94.3333L186.333 93.6667M138 94L139 95L138 94M139 95L140 96L139 95M112.333 96.6667L112.667 97.3333L112.333 96.6667M140 96L141 97L140 96M144 98L145 99L144 98M145 99L146 100L145 99M187 99L187 107L188 107L187 99M143 100L144 101L143 100M146 100L147 101L146 100M144 101L145 102L144 101M147 101L148 102L147 101M145 102L146 103L145 102M148 102L149 103L148 102M146 103L147 104L146 103M147 104L148 105L147 104M148 105L149 106L148 105M149 106L150 107L149 106M231 106L231 111C228.446 111.197 223.923 112.087 227 115L226 112L232 112L232 107L234 107L234 112L240 113L240 112L235 111L231 106M150 107L151 108L150 107M152 107L153 108L152 107z"/>
<path style="fill:#f0f2f4; stroke:none;" d="M232 107L232 112L226 112L232 115L232 119L233 119L234 115L240 113L234 112L234 107L232 107z"/>
<path style="fill:#a1b490; stroke:none;" d="M112.333 108.667L112.667 109.333L112.333 108.667M153 108L154 109L153 108M154 109L155 110L154 109M186 110L186 113L187 113L186 110M113.333 112.667L113.667 113.333L113.333 112.667M152 113L153 114L152 113M238.667 114.333L239.333 114.667L238.667 114.333M114.333 115.667L114.667 116.333L114.333 115.667M151 115L152 116L151 115M153.333 115.667L153.667 116.333L153.333 115.667M185 115L186 116L185 115M231 115L231 119L232 119L231 115M234 115L233 119L234 115M150 117L151 118L150 117M184 117L185 118L184 117M115 118L116 119L115 118M152 118L153 119L152 118M116.333 119.667L116.667 120.333L116.333 119.667M149.333 119.667L149.667 120.333L149.333 119.667M183 119L184 120L183 119M151 120L152 121L151 120M117 121L118 122L117 121M182 121L183 122L182 121M148 122L149 123L148 122M150 122L151 123L150 122M118 123L119 124L118 123M181 123L182 124L181 123M119 124L120 125L119 124M147 124L148 125L147 124M149 124L150 125L149 124M120 125L121 126L120 125M146 126L147 127L146 126M148.333 126.667L148.667 127.333L148.333 126.667M179 126L180 127L179 126M178 127L179 128L178 127M145 128L146 129L145 128M177 128L178 129L177 128M124 129L125 130L124 129M147 129L148 130L147 129M176 129L177 130L176 129M178 131L181 130L178 131z"/>
<path style="fill:#fdda71; stroke:none;" d="M178 131L202 155C203.536 146.66 186.563 127.338 178 131z"/>
<path style="fill:#a1b490; stroke:none;" d="M183 129L184 130L183 129M125 130L126 131L125 130M144.333 130.667L144.667 131.333L144.333 130.667M175 130L176 131L175 130M126 131L127 132L126 131M146 131L147 132L146 131M174 131L175 132L174 131M173 132L174 133L173 132M178 132L179 133L178 132M186 132L187 133L186 132M129 133L130 134L129 133M143 133L144 134L143 133M145 133L146 134L145 133M172 133L173 134L172 133M173 136L179 136C176.546 133.703 175.454 133.703 173 136M179 133L180 134L179 133M187 133L188 134L187 133M131 134L132 135L131 134z"/>
<path style="fill:#f0f2f4; stroke:none;" d="M166 140C168.614 145.605 173.668 149.668 178 154L187 163C190.781 166.775 207.008 177.548 204.623 163C203.323 155.064 189.626 145.378 184 140.04C181.868 138.017 179.186 135.067 176 135.024C172.573 134.977 168.797 138.282 166 140z"/>
<path style="fill:#a1b490; stroke:none;" d="M180 134L181 135L180 134M188 134L189 135L188 134M133.667 135.333L134.333 135.667L133.667 135.333M142 135L143 136L142 135M144 135L145 136L144 135M169 135L170 136L169 135M181 135L182 136L181 135M189 135L190 136L189 135M136 136L137 137L136 136M171 136L172 137L171 136M182 136L183 137L182 136M190 136L191 137L190 136M139 137L139 138L142 138L139 137M143 137L144 138L143 137M166 137L167 138L166 137M170 137L171 138L170 137M183 137L184 138L183 137M191 137L192 138L191 137M163 138L164 139L163 138M168 138L169 139L168 138M184 138L185 139L184 138M192 138L193 139L192 138M161 139L162 140L161 139M166 139L167 140L166 139M185 139L186 140L185 139M157.667 140.333L158.333 140.667L157.667 140.333M165 140L166 141L165 140M186 140L187 141L186 140M144 141L145 142L144 141M151 141L151 142L154 142L151 141M161 141L162 142L161 141z"/>
<path style="fill:#f0f2f4; stroke:none;" d="M151 144L154 163C156.509 162.091 160.081 159.555 162.815 160.421C171.135 163.057 170.75 172.929 165 177C172.749 193.616 202.283 204.043 219 197C217.644 192.292 214.633 182.712 209.787 180.603C205.194 178.605 200.459 180.912 196.109 177.427C192.422 174.474 191.133 169.476 187.942 166C180.031 157.384 170.263 150.123 163 141L151 144z"/>
<path style="fill:#a1b490; stroke:none;" d="M163 141L164 142L163 141M187 141L188 142L187 141M157 142L157 143L160 143L157 142M166 142L167 143L166 142M188 142L189 143L188 142M195 142L196 143L195 142M151 143L151 144L154 144L151 143M164 143L165 144L164 143M167 143L168 144L167 143M189 143L190 144L189 143M196 143L197 144L196 143M150 144L150 148L151 148L150 144M165 144L166 145L165 144M168 144L169 145L168 144M190 144L191 145L190 144M197 144L198 145L197 144M166 145L167 146L166 145M169 145L170 146L169 145M191 145L192 146L191 145M198 145L199 146L198 145M170 146L171 147L170 146M192 146L193 147L192 146M199 146L200 147L199 146M171 147L172 148L171 147M193 147L194 148L193 147M172 148L173 149L172 148M194 148L195 149L194 148M173 149L174 150L173 149M195 149L196 150L195 149M174 150L175 151L174 150M196 150L197 151L196 150M202 150L203 151L202 150M175 151L176 152L175 151M197 151L198 152L197 151M151 152L151 155L152 155L151 152M176 152L177 153L176 152M198 152L199 153L198 152M177 153L178 154L177 153M199 153L200 154L199 153M178 154L179 155L178 154M200 154L201 155L200 154M179 155L180 156L179 155M180 156L181 157L180 156M152 157L153 158L152 157M181 157L182 158L181 157M182 158L183 159L182 158M161 159L162 160L161 159M163 159L164 160L163 159M183 159L184 160L183 159M153 160L154 161L153 160M159 160L160 161L159 160M164 160L165 161L164 160M184 160L185 161L184 160M157 161L158 162L157 161M161 161L161 162L164 163L161 161M185 161L186 162L185 161M156 162L157 163L156 162z"/>
<path style="fill:#fdda71; stroke:none;" d="M169 172C168.176 170.258 167.37 168.6 166.286 166.995C156.92 153.121 152.722 177.669 163.991 174.788C165.815 174.321 167.456 172.999 169 172z"/>
<path style="fill:#a1b490; stroke:none;" d="M165 162L166 163L165 162M186 162L187 163L186 162M205 162L205 166L206 166L205 162M158 163L159 164L158 163M166 163L167 164L166 163M187 163L188 164L187 163M156 164L157 165L156 164M164 164L165 165L164 164M188 164L189 165L188 164M155 165L156 166L155 165M167 165L168 166L167 165M155 167L156 168L155 167M166 167L167 168L166 167M168 167L169 168L168 167M169 168L170 169L169 168M203 168L204 169L203 168M156 169L157 170L156 169M157 170L158 171L157 170M168 170L169 171L168 170M170 170L171 171L170 170M201 170L202 171L201 170M192 171L192 174L193 174L192 171M196 171L197 172L196 171M199 171L200 172L199 171M158 172L159 173L158 172M168 172L169 173L168 172M166 173L167 174L166 173M170 173L171 174L170 173M165 174L166 175L165 174M168 174L169 175L168 174M160 175L161 176L160 175M163 175L164 176L163 175M167 175L168 176L167 175M193 175L194 176L193 175M161.667 176.333L162.333 176.667L161.667 176.333M194 176L195 177L194 176M164.333 177.667L164.667 178.333L164.333 177.667M195 177L196 178L195 177M165 179L166 180L165 179M198 179L198 180L201 180L198 179M208 179L208 180L211 180L208 179M166 180L167 181L166 180M211 180L212 181L211 180M167 181L168 182L167 181M168 182L169 183L168 182M212 182L213 183L212 182M169 183L170 184L169 183M170 184L171 185L170 184M213 184L214 185L213 184M171 185L172 186L171 185M172 186L173 187L172 186M214 186L215 187L214 186M173 187L174 188L173 187M215 188L216 189L215 188M176 189L177 190L176 189M177 190L178 191L177 190M216 190L217 191L216 190M179 191L180 192L179 191M180.667 192.333L181.333 192.667L180.667 192.333M217 192L218 193L217 192M184.667 194.333L185.333 194.667L184.667 194.333M218 194L219 195L218 194M187 195L188 196L187 195M189.667 196.333L190.333 196.667L189.667 196.333M219 196L220 197L219 196M194 197L194 198L197 198L194 197M203 197L203 198L206 198L203 197M207 197L208 198L207 197M218 197L219 198L218 197M209 198L210 199L209 198M215.667 198.333L216.333 198.667L215.667 198.333z"/>
</svg>
